<?xml version="1.0" standalone="no"?>
<!DOCTYPE svg PUBLIC "-//W3C//DTD SVG 20010904//EN"
 "http://www.w3.org/TR/2001/REC-SVG-20010904/DTD/svg10.dtd">
<svg version="1.0" xmlns="http://www.w3.org/2000/svg"
 width="564.000000pt" height="564.000000pt" viewBox="0 0 564.000000 564.000000"
 preserveAspectRatio="xMidYMid meet">
<metadata>
Created by potrace 1.11, written by Peter Selinger 2001-2013
</metadata>
<g transform="translate(0.000000,564.000000) scale(0.100000,-0.100000)"
fill="#000000" stroke="none">
<path d="M1480 4151 c-11 -21 -15 -437 -4 -465 6 -14 90 -16 855 -16 467 0
849 -3 849 -8 0 -4 -34 -41 -75 -82 l-75 -75 -693 -5 c-684 -5 -692 -5 -692
-25 0 -20 8 -20 658 -23 361 -1 657 -5 657 -10 0 -4 -319 -327 -710 -717 -409
-409 -710 -718 -710 -728 0 -59 38 -24 886 824 634 633 854 859 852 874 -3 20
-12 20 -875 23 l-873 2 0 195 0 195 1272 0 1273 0 -1304 -1304 c-953 -953
-1302 -1308 -1298 -1320 6 -15 124 -16 1349 -14 l1343 3 3 229 c2 160 -1 233
-9 242 -10 12 -152 14 -863 14 l-851 0 85 85 85 85 681 0 c594 0 683 2 694 15
10 12 10 18 0 30 -11 13 -97 15 -664 15 l-651 0 714 714 c705 705 736 739 692
754 -8 3 -360 -343 -875 -857 -746 -746 -859 -863 -850 -878 11 -17 64 -18
883 -21 l871 -2 0 -190 0 -190 -1272 0 -1273 0 1305 1305 c1130 1130 1303
1307 1294 1322 -11 17 -86 18 -1342 21 -1308 2 -1331 2 -1342 -17z"/>
</g>
</svg>
